<svg width="87" height="87" viewBox="0 0 87 87" fill="none" xmlns="http://www.w3.org/2000/svg">
<path d="M0 0H87V87H0V0Z" fill="white"/>
<path d="M0 0L39 87H0V0Z" fill="#C35422"/>
<path d="M20.64 59.72C18.0533 59.72 15.7067 59.2 13.6 58.16C11.52 57.0933 9.86667 55.52 8.64 53.44C7.41333 51.36 6.8 48.8133 6.8 45.8C6.8 43.5067 7.17333 41.4933 7.92 39.76C8.66667 38.0267 9.68 36.5733 10.96 35.4C12.2667 34.2267 13.76 33.3467 15.44 32.76C17.1467 32.1733 18.9467 31.88 20.84 31.88C22.36 31.88 23.76 32.0533 25.04 32.4C26.32 32.7467 27.52 33.2267 28.64 33.84L28.8 38.76H28.4L26.4 35.56C26.1333 35.0533 25.84 34.6 25.52 34.2C25.2 33.7733 24.8 33.4533 24.32 33.24C23.92 33.0533 23.52 32.92 23.12 32.84C22.7467 32.7333 22.2667 32.68 21.68 32.68C20.1333 32.68 18.72 33.0933 17.44 33.92C16.1867 34.7467 15.1733 36.12 14.4 38.04C13.6533 39.9333 13.28 42.5333 13.28 45.84C13.28 49.12 13.64 51.72 14.36 53.64C15.08 55.5333 16.0533 56.8933 17.28 57.72C18.5333 58.52 19.9333 58.92 21.48 58.92C22.3333 58.92 23.0133 58.8667 23.52 58.76C24.0267 58.6267 24.5333 58.44 25.04 58.2C25.5467 57.9867 25.9333 57.68 26.2 57.28C26.4667 56.8533 26.7067 56.4 26.92 55.92L28.68 52H29.08L28.96 57.72C27.84 58.3067 26.5867 58.7867 25.2 59.16C23.8133 59.5333 22.2933 59.72 20.64 59.72Z" fill="#1A1A1A"/>
<path d="M30.9816 59V58.6L31.8216 58.28C32.6749 57.9333 33.1016 57.2533 33.1016 56.24V35.36C33.1016 34.2933 32.6749 33.6133 31.8216 33.32L30.9816 33V32.6H41.5416C44.3682 32.6 46.7949 33.1333 48.8216 34.2C50.8749 35.24 52.4482 36.7467 53.5416 38.72C54.6616 40.6667 55.2216 43.0133 55.2216 45.76C55.2216 48.56 54.6216 50.9467 53.4216 52.92C52.2216 54.8933 50.5416 56.4 48.3816 57.44C46.2482 58.48 43.7282 59 40.8216 59H30.9816ZM39.1016 58.2H40.8216C42.7416 58.2 44.2882 57.8267 45.4616 57.08C46.6349 56.3067 47.4882 55.0267 48.0216 53.24C48.5816 51.4267 48.8616 48.9467 48.8616 45.8C48.8616 42.6533 48.5816 40.1867 48.0216 38.4C47.4882 36.5867 46.6482 35.3067 45.5016 34.56C44.3549 33.7867 42.8482 33.4 40.9816 33.4H39.1016V58.2Z" fill="#1A1A1A"/>
<path d="M65.5191 59.72C64.0524 59.72 62.5591 59.5333 61.0391 59.16C59.5191 58.8133 58.2524 58.3467 57.2391 57.76L57.4391 52.32H57.8391L59.0791 54.92C59.4524 55.6667 59.8524 56.3333 60.2791 56.92C60.7057 57.48 61.2924 57.92 62.0391 58.24C62.5724 58.5067 63.0791 58.6933 63.5591 58.8C64.0657 58.88 64.6257 58.92 65.2391 58.92C66.8657 58.92 68.1457 58.48 69.0791 57.6C70.0391 56.72 70.5191 55.5867 70.5191 54.2C70.5191 52.8933 70.1991 51.88 69.5591 51.16C68.9191 50.4133 67.8924 49.6933 66.4791 49L64.8391 48.28C62.5457 47.2667 60.7457 46.1067 59.4391 44.8C58.1591 43.4667 57.5191 41.7067 57.5191 39.52C57.5191 37.9467 57.9191 36.5867 58.7191 35.44C59.5457 34.2933 60.6791 33.4133 62.1191 32.8C63.5857 32.1867 65.2924 31.88 67.2391 31.88C68.6524 31.88 69.9857 32.0667 71.2391 32.44C72.5191 32.8133 73.6257 33.32 74.5591 33.96L74.3191 38.76H73.9191L72.2791 35.76C71.8257 34.8267 71.3724 34.1733 70.9191 33.8C70.4657 33.4 69.9457 33.12 69.3591 32.96C69.0124 32.8533 68.6924 32.7867 68.3991 32.76C68.1057 32.7067 67.7324 32.68 67.2791 32.68C65.9191 32.68 64.7724 33.08 63.8391 33.88C62.9057 34.6533 62.4391 35.7067 62.4391 37.04C62.4391 38.4 62.7991 39.4933 63.5191 40.32C64.2391 41.12 65.2924 41.84 66.6791 42.48L68.5191 43.28C71.0791 44.4 72.9191 45.6 74.0391 46.88C75.1591 48.1333 75.7191 49.76 75.7191 51.76C75.7191 54.1067 74.8257 56.0267 73.0391 57.52C71.2791 58.9867 68.7724 59.72 65.5191 59.72Z" fill="#1A1A1A"/>
</svg>
