<svg width="224" height="100" viewBox="0 0 224 100" fill="none" xmlns="http://www.w3.org/2000/svg">
<path d="M26.944 24.786C24.7453 24.786 22.7507 24.344 20.96 23.46C19.192 22.5533 17.7867 21.216 16.744 19.448C15.7013 17.68 15.18 15.5153 15.18 12.954C15.18 11.0047 15.4973 9.29333 16.132 7.82C16.7667 6.34667 17.628 5.11133 18.716 4.114C19.8267 3.11667 21.096 2.36867 22.524 1.87C23.9747 1.37133 25.5047 1.122 27.114 1.122C28.406 1.122 29.596 1.26933 30.684 1.564C31.772 1.85867 32.792 2.26667 33.744 2.788L33.88 6.97H33.54L31.84 4.25C31.6133 3.81933 31.364 3.434 31.092 3.094C30.82 2.73133 30.48 2.45933 30.072 2.278C29.732 2.11933 29.392 2.006 29.052 1.938C28.7347 1.84733 28.3267 1.802 27.828 1.802C26.5133 1.802 25.312 2.15333 24.224 2.856C23.1587 3.55867 22.2973 4.726 21.64 6.358C21.0053 7.96733 20.688 10.1773 20.688 12.988C20.688 15.776 20.994 17.986 21.606 19.618C22.218 21.2273 23.0453 22.3833 24.088 23.086C25.1533 23.766 26.3433 24.106 27.658 24.106C28.3833 24.106 28.9613 24.0607 29.392 23.97C29.8227 23.8567 30.2533 23.698 30.684 23.494C31.1147 23.3127 31.4433 23.052 31.67 22.712C31.8967 22.3493 32.1007 21.964 32.282 21.556L33.778 18.224H34.118L34.016 23.086C33.064 23.5847 31.9987 23.9927 30.82 24.31C29.6413 24.6273 28.3493 24.786 26.944 24.786Z" fill="#1A1A1A" fill-opacity="0.901961"/>
<path d="M44.2003 7.31C45.6737 7.31 46.9317 7.616 47.9743 8.228C49.017 8.81733 49.8103 9.63333 50.3543 10.676C50.921 11.696 51.2043 12.8633 51.2043 14.178C51.2043 14.4273 51.193 14.688 51.1703 14.96C51.1477 15.2093 51.1023 15.436 51.0343 15.64H40.9023C40.925 18.088 41.3557 19.856 42.1943 20.944C43.0557 22.0093 44.325 22.542 46.0023 22.542C47.1357 22.542 48.0537 22.3607 48.7563 21.998C49.459 21.6353 50.1163 21.1027 50.7283 20.4L51.0683 20.706C50.3657 21.9527 49.425 22.9273 48.2463 23.63C47.0903 24.3327 45.6963 24.684 44.0643 24.684C42.455 24.684 41.027 24.344 39.7803 23.664C38.5337 22.9613 37.559 21.964 36.8563 20.672C36.1537 19.38 35.8023 17.8387 35.8023 16.048C35.8023 14.1893 36.2103 12.614 37.0263 11.322C37.8423 10.0073 38.885 9.01 40.1543 8.33C41.4463 7.65 42.795 7.31 44.2003 7.31ZM44.0983 7.99C43.441 7.99 42.8743 8.194 42.3983 8.602C41.945 8.98733 41.5823 9.69 41.3103 10.71C41.061 11.7073 40.925 13.124 40.9023 14.96H46.7163C46.943 12.4893 46.8523 10.71 46.4443 9.622C46.0363 8.534 45.2543 7.99 44.0983 7.99Z" fill="#1A1A1A" fill-opacity="0.901961"/>
<path d="M52.8988 24.174V23.834L53.3747 23.698C54.1681 23.4713 54.5648 22.916 54.5648 22.032V11.39C54.5648 10.8913 54.4854 10.5287 54.3268 10.302C54.1681 10.0527 53.8621 9.88267 53.4087 9.792L52.8988 9.656V9.316L58.7127 7.344L59.0527 7.684L59.3247 9.724C60.1181 9.02133 61.0134 8.44333 62.0107 7.99C63.0081 7.53667 63.9941 7.31 64.9688 7.31C66.4647 7.31 67.6094 7.718 68.4027 8.534C69.2187 9.35 69.6267 10.5967 69.6267 12.274V22.066C69.6267 22.95 70.0574 23.5053 70.9187 23.732L71.2247 23.834V24.174H63.2008V23.834L63.6427 23.698C64.4361 23.4487 64.8327 22.8933 64.8327 22.032V11.186C64.8327 9.73533 64.1074 9.01 62.6567 9.01C61.6594 9.01 60.5714 9.50867 59.3927 10.506V22.066C59.3927 22.95 59.7894 23.5053 60.5827 23.732L60.8888 23.834V24.174H52.8988Z" fill="#1A1A1A" fill-opacity="0.901961"/>
<path d="M78.849 24.684C77.3983 24.684 76.265 24.3213 75.449 23.596C74.6556 22.8707 74.259 21.7147 74.259 20.128V8.5H71.913V8.16L72.729 8.024C73.4316 7.86533 74.0323 7.63867 74.531 7.344C75.0523 7.04933 75.5623 6.65267 76.061 6.154L78.849 3.06H79.189L79.087 7.82H82.895V8.5H79.053V20.74C79.053 21.5333 79.223 22.134 79.563 22.542C79.9257 22.95 80.379 23.154 80.923 23.154C81.399 23.154 81.8183 23.0407 82.181 22.814C82.5437 22.5647 82.9063 22.236 83.269 21.828L83.609 22.168C83.1557 22.9387 82.5323 23.5507 81.739 24.004C80.9456 24.4573 79.9823 24.684 78.849 24.684Z" fill="#1A1A1A" fill-opacity="0.901961"/>
<path d="M84.6741 24.174V23.834L85.1841 23.698C85.6375 23.562 85.9435 23.358 86.1021 23.086C86.2835 22.814 86.3741 22.4627 86.3741 22.032V11.39C86.3741 10.8913 86.2835 10.5287 86.1021 10.302C85.9435 10.0527 85.6375 9.88267 85.1841 9.792L84.6741 9.656V9.316L90.5221 7.344L90.8621 7.684L91.1681 10.608V10.88C91.4855 10.2453 91.8935 9.66733 92.3921 9.146C92.9135 8.602 93.4801 8.16 94.0921 7.82C94.7268 7.48 95.3501 7.31 95.9621 7.31C96.8235 7.31 97.4808 7.548 97.9341 8.024C98.3875 8.5 98.6141 9.10067 98.6141 9.826C98.6141 10.5967 98.3875 11.1973 97.9341 11.628C97.5035 12.036 96.9821 12.24 96.3701 12.24C95.4181 12.24 94.5795 11.764 93.8541 10.812L93.7861 10.744C93.5595 10.4267 93.2988 10.2567 93.0041 10.234C92.7095 10.1887 92.4375 10.3247 92.1881 10.642C91.9615 10.846 91.7688 11.0953 91.6101 11.39C91.4741 11.662 91.3381 11.9793 91.2021 12.342V21.828C91.2021 22.7347 91.5988 23.3013 92.3921 23.528L93.4801 23.834V24.174H84.6741Z" fill="#1A1A1A" fill-opacity="0.901961"/>
<path d="M107.685 7.31C109.158 7.31 110.416 7.616 111.459 8.228C112.501 8.81733 113.295 9.63333 113.839 10.676C114.405 11.696 114.689 12.8633 114.689 14.178C114.689 14.4273 114.677 14.688 114.655 14.96C114.632 15.2093 114.587 15.436 114.519 15.64H104.387C104.409 18.088 104.84 19.856 105.679 20.944C106.54 22.0093 107.809 22.542 109.487 22.542C110.62 22.542 111.538 22.3607 112.241 21.998C112.943 21.6353 113.601 21.1027 114.213 20.4L114.553 20.706C113.85 21.9527 112.909 22.9273 111.731 23.63C110.575 24.3327 109.181 24.684 107.549 24.684C105.939 24.684 104.511 24.344 103.265 23.664C102.018 22.9613 101.043 21.964 100.341 20.672C99.638 19.38 99.2867 17.8387 99.2867 16.048C99.2867 14.1893 99.6947 12.614 100.511 11.322C101.327 10.0073 102.369 9.01 103.639 8.33C104.931 7.65 106.279 7.31 107.685 7.31ZM107.583 7.99C106.925 7.99 106.359 8.194 105.883 8.602C105.429 8.98733 105.067 9.69 104.795 10.71C104.545 11.7073 104.409 13.124 104.387 14.96H110.201C110.427 12.4893 110.337 10.71 109.929 9.622C109.521 8.534 108.739 7.99 107.583 7.99Z" fill="#1A1A1A" fill-opacity="0.901961"/>
<path d="M118.97 32.334C118.018 32.334 117.157 32.1187 116.386 31.688C115.615 31.2573 115.23 30.6453 115.23 29.852C115.23 29.2627 115.423 28.8093 115.808 28.492C116.193 28.1747 116.647 28.016 117.168 28.016C117.689 28.016 118.177 28.152 118.63 28.424C119.061 28.696 119.446 29.172 119.786 29.852L120.126 30.702C120.262 30.9513 120.421 31.0873 120.602 31.11C120.783 31.1553 120.953 31.042 121.112 30.77C121.225 30.566 121.327 30.328 121.418 30.056C121.509 29.8067 121.622 29.4893 121.758 29.104C122.075 28.3333 122.347 27.3927 122.574 26.282C122.823 25.194 123.05 23.9813 123.254 22.644C123.617 20.4227 123.968 18.1447 124.308 15.81C124.648 13.4753 124.999 11.016 125.362 8.432H122.608L122.676 8.126L124.002 7.99C124.546 7.922 124.954 7.74067 125.226 7.446C125.498 7.15133 125.713 6.72067 125.872 6.154C126.484 4.182 127.47 2.66333 128.83 1.598C130.19 0.532667 131.867 0 133.862 0C134.995 0 135.913 0.249334 136.616 0.748001C137.319 1.224 137.67 1.836 137.67 2.584C137.67 3.196 137.477 3.68333 137.092 4.046C136.707 4.40867 136.242 4.59 135.698 4.59C134.633 4.59 133.749 3.876 133.046 2.448L132.91 1.904C132.706 1.428 132.468 1.20133 132.196 1.224C131.947 1.224 131.731 1.394 131.55 1.734C131.165 2.278 130.813 3.03733 130.496 4.012C130.179 4.98667 129.895 6.256 129.646 7.82H133.794L133.624 8.534L129.544 8.5C129.181 10.9027 128.819 13.3167 128.456 15.742C128.116 18.1447 127.742 20.4567 127.334 22.678C127.017 24.3553 126.597 25.806 126.076 27.03C125.577 28.2767 124.897 29.3307 124.036 30.192C123.333 30.8947 122.54 31.4273 121.656 31.79C120.795 32.1527 119.899 32.334 118.97 32.334Z" fill="#1A1A1A" fill-opacity="0.4"/>
<path d="M139.348 24.684C138.17 24.684 137.093 24.4573 136.118 24.004C135.144 23.528 134.373 22.8253 133.806 21.896C133.24 20.944 132.956 19.7427 132.956 18.292C132.956 16.8413 133.194 15.4587 133.67 14.144C134.169 12.8293 134.86 11.662 135.744 10.642C136.628 9.59933 137.66 8.78333 138.838 8.194C140.017 7.60467 141.298 7.31 142.68 7.31C143.882 7.31 144.947 7.548 145.876 8.024C146.828 8.47733 147.576 9.16867 148.12 10.098C148.687 11.0273 148.97 12.2173 148.97 13.668C148.97 15.096 148.721 16.4787 148.222 17.816C147.746 19.1307 147.066 20.3093 146.182 21.352C145.321 22.372 144.301 23.188 143.122 23.8C141.966 24.3893 140.708 24.684 139.348 24.684ZM139.756 24.004C140.459 24.004 141.094 23.6867 141.66 23.052C142.25 22.3947 142.76 21.5333 143.19 20.468C143.621 19.38 143.95 18.19 144.176 16.898C144.403 15.5833 144.516 14.28 144.516 12.988C144.516 11.1067 144.324 9.80333 143.938 9.078C143.553 8.35267 143.054 7.99 142.442 7.99C141.717 7.99 141.048 8.30733 140.436 8.942C139.824 9.57667 139.292 10.4267 138.838 11.492C138.385 12.5573 138.034 13.736 137.784 15.028C137.535 16.32 137.41 17.612 137.41 18.904C137.41 20.8307 137.637 22.168 138.09 22.916C138.544 23.6413 139.099 24.004 139.756 24.004Z" fill="#1A1A1A" fill-opacity="0.4"/>
<path d="M150.685 24.412L150.345 24.174L152.929 11.73C153.042 11.1407 153.008 10.71 152.827 10.438C152.646 10.1433 152.34 9.90533 151.909 9.724L151.399 9.486L151.467 9.146L157.383 7.276L157.723 7.582L156.805 13.192C157.281 12.104 157.836 11.118 158.471 10.234C159.106 9.35 159.774 8.64733 160.477 8.126C161.18 7.582 161.882 7.31 162.585 7.31C163.288 7.31 163.854 7.50267 164.285 7.888C164.716 8.25067 164.931 8.738 164.931 9.35C164.931 9.98467 164.738 10.506 164.353 10.914C163.99 11.322 163.492 11.526 162.857 11.526C162.358 11.526 161.882 11.4013 161.429 11.152C160.976 10.88 160.534 10.4947 160.103 9.996C159.31 10.5853 158.63 11.356 158.063 12.308C157.496 13.2373 156.975 14.2573 156.499 15.368L156.159 16.932C155.91 18.1333 155.672 19.3347 155.445 20.536C155.218 21.7373 154.992 22.95 154.765 24.174L150.685 24.412Z" fill="#1A1A1A" fill-opacity="0.4"/>
<path d="M22.6523 61.174V60.834L23.3663 60.562C24.0916 60.2673 24.4543 59.6893 24.4543 58.828V41.08C24.4543 40.1733 24.0916 39.5953 23.3663 39.346L22.6523 39.074V38.734H31.6283C34.031 38.734 36.0936 39.1873 37.8163 40.094C39.5616 40.978 40.899 42.2587 41.8283 43.936C42.7803 45.5907 43.2563 47.5853 43.2563 49.92C43.2563 52.3 42.7463 54.3287 41.7263 56.006C40.7063 57.6833 39.2783 58.964 37.4423 59.848C35.629 60.732 33.487 61.174 31.0163 61.174H22.6523ZM29.5543 60.494H31.0163C32.6483 60.494 33.963 60.1767 34.9603 59.542C35.9576 58.8847 36.683 57.7967 37.1363 56.278C37.6123 54.7367 37.8503 52.6287 37.8503 49.954C37.8503 47.2793 37.6123 45.1827 37.1363 43.664C36.683 42.1227 35.969 41.0347 34.9943 40.4C34.0196 39.7427 32.739 39.414 31.1523 39.414H29.5543V60.494Z" fill="#1A1A1A" fill-opacity="0.901961"/>
<path d="M53.1652 44.31C54.6385 44.31 55.8965 44.616 56.9392 45.228C57.9818 45.8173 58.7752 46.6333 59.3192 47.676C59.8858 48.696 60.1692 49.8633 60.1692 51.178C60.1692 51.4273 60.1578 51.688 60.1352 51.96C60.1125 52.2093 60.0672 52.436 59.9992 52.64H49.8672C49.8898 55.088 50.3205 56.856 51.1592 57.944C52.0205 59.0093 53.2898 59.542 54.9672 59.542C56.1005 59.542 57.0185 59.3607 57.7212 58.998C58.4238 58.6353 59.0812 58.1027 59.6932 57.4L60.0332 57.706C59.3305 58.9527 58.3898 59.9273 57.2112 60.63C56.0552 61.3327 54.6612 61.684 53.0292 61.684C51.4198 61.684 49.9918 61.344 48.7452 60.664C47.4985 59.9613 46.5238 58.964 45.8212 57.672C45.1185 56.38 44.7672 54.8387 44.7672 53.048C44.7672 51.1893 45.1752 49.614 45.9912 48.322C46.8072 47.0073 47.8498 46.01 49.1192 45.33C50.4112 44.65 51.7598 44.31 53.1652 44.31ZM53.0632 44.99C52.4058 44.99 51.8392 45.194 51.3632 45.602C50.9098 45.9873 50.5472 46.69 50.2752 47.71C50.0258 48.7073 49.8898 50.124 49.8672 51.96H55.6812C55.9078 49.4893 55.8172 47.71 55.4092 46.622C55.0012 45.534 54.2192 44.99 53.0632 44.99Z" fill="#1A1A1A" fill-opacity="0.901961"/>
<path d="M61.8636 61.174V60.834L62.3396 60.698C62.7703 60.5847 63.0649 60.392 63.2236 60.12C63.4049 59.848 63.5069 59.4853 63.5296 59.032V48.39C63.5296 47.8913 63.4503 47.5287 63.2916 47.302C63.1329 47.0527 62.8269 46.8827 62.3736 46.792L61.8636 46.656V46.316L67.6776 44.344L68.0176 44.684L68.2896 46.996C69.0376 46.248 69.8876 45.6133 70.8396 45.092C71.8143 44.5707 72.8229 44.31 73.8656 44.31C74.9536 44.31 75.8263 44.5367 76.4836 44.99C77.1409 45.4207 77.6396 46.1007 77.9796 47.03C78.8636 46.1913 79.8156 45.534 80.8356 45.058C81.8783 44.5593 82.8869 44.31 83.8616 44.31C85.4709 44.31 86.6496 44.6953 87.3976 45.466C88.1683 46.2367 88.5536 47.4493 88.5536 49.104V59.066C88.5536 59.95 88.9616 60.5053 89.7776 60.732L90.1516 60.834V61.174H82.2976V60.834L82.6376 60.732C83.0683 60.596 83.3629 60.392 83.5216 60.12C83.7029 59.848 83.7936 59.4853 83.7936 59.032V48.628C83.7936 47.676 83.6236 47.03 83.2836 46.69C82.9436 46.3273 82.3996 46.146 81.6516 46.146C81.0623 46.146 80.4843 46.282 79.9176 46.554C79.3736 46.8033 78.7956 47.1887 78.1836 47.71C78.2969 48.0727 78.3649 48.4693 78.3876 48.9C78.4329 49.3307 78.4556 49.784 78.4556 50.26V59.066C78.4783 59.95 78.8863 60.5053 79.6796 60.732L79.9856 60.834V61.174H72.0976V60.834L72.5736 60.698C73.0043 60.562 73.2989 60.3693 73.4576 60.12C73.6389 59.848 73.7296 59.4853 73.7296 59.032V48.662C73.7296 47.7553 73.5596 47.1093 73.2196 46.724C72.9023 46.3387 72.3469 46.146 71.5536 46.146C71.0323 46.146 70.5109 46.282 69.9896 46.554C69.4683 46.8033 68.9243 47.1773 68.3576 47.676V59.066C68.3576 59.95 68.7543 60.5053 69.5476 60.732L69.8536 60.834V61.174H61.8636Z" fill="#1A1A1A" fill-opacity="0.901961"/>
<path d="M100.083 61.684C98.3601 61.684 96.8641 61.3327 95.5948 60.63C94.3254 59.9047 93.3394 58.8847 92.6368 57.57C91.9568 56.2553 91.6168 54.714 91.6168 52.946C91.6168 51.178 91.9794 49.648 92.7048 48.356C93.4528 47.064 94.4614 46.0667 95.7308 45.364C97.0228 44.6613 98.4734 44.31 100.083 44.31C101.692 44.31 103.131 44.6613 104.401 45.364C105.67 46.044 106.667 47.03 107.393 48.322C108.141 49.614 108.515 51.1553 108.515 52.946C108.515 54.7367 108.163 56.2893 107.461 57.604C106.781 58.896 105.806 59.9047 104.537 60.63C103.29 61.3327 101.805 61.684 100.083 61.684ZM100.083 61.004C100.876 61.004 101.511 60.7773 101.987 60.324C102.463 59.8707 102.803 59.066 103.007 57.91C103.233 56.754 103.347 55.122 103.347 53.014C103.347 50.8833 103.233 49.24 103.007 48.084C102.803 46.928 102.463 46.1233 101.987 45.67C101.511 45.2167 100.876 44.99 100.083 44.99C99.2894 44.99 98.6434 45.2167 98.1448 45.67C97.6688 46.1233 97.3174 46.928 97.0908 48.084C96.8868 49.24 96.7848 50.8833 96.7848 53.014C96.7848 55.122 96.8868 56.754 97.0908 57.91C97.3174 59.066 97.6688 59.8707 98.1448 60.324C98.6434 60.7773 99.2894 61.004 100.083 61.004Z" fill="#1A1A1A" fill-opacity="0.901961"/>
<path d="M117.42 55.292C115.856 55.292 114.53 55.0313 113.442 54.51V55.666C113.442 56.3687 113.793 56.788 114.496 56.924L120.888 58.114C121.953 58.318 122.917 58.59 123.778 58.93C124.639 59.2473 125.331 59.712 125.852 60.324C126.373 60.9133 126.634 61.7293 126.634 62.772C126.634 63.8827 126.271 64.9027 125.546 65.832C124.821 66.784 123.744 67.5433 122.316 68.11C120.911 68.6993 119.154 68.994 117.046 68.994C115.233 68.994 113.793 68.8013 112.728 68.416C111.663 68.0533 110.903 67.5773 110.45 66.988C110.019 66.3987 109.804 65.7753 109.804 65.118C109.804 64.302 110.076 63.4747 110.62 62.636C111.187 61.82 111.878 61.1627 112.694 60.664C111.991 60.392 111.481 60.0407 111.164 59.61C110.847 59.1793 110.688 58.7147 110.688 58.216C110.688 57.7627 110.801 57.3433 111.028 56.958C111.277 56.55 111.572 56.142 111.912 55.734L113.034 54.306C111.379 53.354 110.552 51.858 110.552 49.818C110.552 48.186 111.13 46.86 112.286 45.84C113.465 44.82 115.187 44.31 117.454 44.31C118.61 44.31 119.619 44.446 120.48 44.718C121.364 44.99 122.089 45.3753 122.656 45.874C123.381 45.7607 124.061 45.5793 124.696 45.33C125.353 45.058 125.943 44.6953 126.464 44.242L126.94 44.582V46.316H123.098C123.914 47.2227 124.322 48.39 124.322 49.818C124.322 51.4047 123.733 52.7193 122.554 53.762C121.398 54.782 119.687 55.292 117.42 55.292ZM117.386 54.612C118.293 54.612 118.95 54.238 119.358 53.49C119.789 52.742 120.004 51.4953 120.004 49.75C120.004 48.0047 119.789 46.7807 119.358 46.078C118.95 45.3527 118.315 44.99 117.454 44.99C116.615 44.99 115.981 45.364 115.55 46.112C115.119 46.8373 114.904 48.0727 114.904 49.818C114.904 51.5633 115.097 52.7987 115.482 53.524C115.89 54.2493 116.525 54.612 117.386 54.612ZM112.32 64.03C112.32 65.3673 112.728 66.376 113.544 67.056C114.383 67.736 115.697 68.076 117.488 68.076C119.369 68.076 120.786 67.77 121.738 67.158C122.69 66.546 123.166 65.6847 123.166 64.574C123.166 63.9393 122.928 63.4293 122.452 63.044C121.999 62.6587 121.217 62.364 120.106 62.16L113.952 61.004C113.771 60.9587 113.589 60.9133 113.408 60.868C113.091 61.3213 112.83 61.8313 112.626 62.398C112.422 62.9873 112.32 63.5313 112.32 64.03Z" fill="#1A1A1A" fill-opacity="0.901961"/>
<path d="M128.071 61.174V60.834L128.581 60.698C129.034 60.562 129.34 60.358 129.499 60.086C129.68 59.814 129.771 59.4627 129.771 59.032V48.39C129.771 47.8913 129.68 47.5287 129.499 47.302C129.34 47.0527 129.034 46.8827 128.581 46.792L128.071 46.656V46.316L133.919 44.344L134.259 44.684L134.565 47.608V47.88C134.882 47.2453 135.29 46.6673 135.789 46.146C136.31 45.602 136.877 45.16 137.489 44.82C138.123 44.48 138.747 44.31 139.359 44.31C140.22 44.31 140.877 44.548 141.331 45.024C141.784 45.5 142.011 46.1007 142.011 46.826C142.011 47.5967 141.784 48.1973 141.331 48.628C140.9 49.036 140.379 49.24 139.767 49.24C138.815 49.24 137.976 48.764 137.251 47.812L137.183 47.744C136.956 47.4267 136.695 47.2567 136.401 47.234C136.106 47.1887 135.834 47.3247 135.585 47.642C135.358 47.846 135.165 48.0953 135.007 48.39C134.871 48.662 134.735 48.9793 134.599 49.342V58.828C134.599 59.7347 134.995 60.3013 135.789 60.528L136.877 60.834V61.174H128.071Z" fill="#1A1A1A" fill-opacity="0.901961"/>
<path d="M147.312 61.684C145.997 61.684 144.887 61.31 143.98 60.562C143.096 59.814 142.654 58.7373 142.654 57.332C142.654 56.2667 143.198 55.292 144.286 54.408C145.374 53.5013 147.085 52.8213 149.42 52.368C149.783 52.3 150.191 52.232 150.644 52.164C151.097 52.0733 151.573 51.9827 152.072 51.892V49.206C152.072 47.6647 151.879 46.588 151.494 45.976C151.131 45.3413 150.553 45.024 149.76 45.024C149.216 45.024 148.785 45.2053 148.468 45.568C148.151 45.908 147.947 46.5087 147.856 47.37L147.788 47.744C147.743 48.7187 147.505 49.4327 147.074 49.886C146.643 50.3393 146.111 50.566 145.476 50.566C144.887 50.566 144.399 50.3847 144.014 50.022C143.629 49.6593 143.436 49.172 143.436 48.56C143.436 47.6307 143.753 46.8487 144.388 46.214C145.045 45.5793 145.907 45.1033 146.972 44.786C148.037 44.4687 149.193 44.31 150.44 44.31C152.457 44.31 154.01 44.8087 155.098 45.806C156.209 46.7807 156.764 48.3787 156.764 50.6V58.114C156.764 59.134 157.24 59.644 158.192 59.644H158.94L159.246 59.916C158.815 60.46 158.339 60.8793 157.818 61.174C157.319 61.4687 156.605 61.616 155.676 61.616C154.679 61.616 153.885 61.3893 153.296 60.936C152.729 60.46 152.355 59.8367 152.174 59.066C151.494 59.7913 150.791 60.4147 150.066 60.936C149.363 61.4347 148.445 61.684 147.312 61.684ZM149.386 59.61C149.839 59.61 150.259 59.508 150.644 59.304C151.052 59.0773 151.528 58.7373 152.072 58.284V52.572C151.845 52.6173 151.619 52.6627 151.392 52.708C151.165 52.7533 150.905 52.7987 150.61 52.844C149.567 53.116 148.729 53.5807 148.094 54.238C147.482 54.8727 147.176 55.734 147.176 56.822C147.176 57.7513 147.391 58.454 147.822 58.93C148.253 59.3833 148.774 59.61 149.386 59.61Z" fill="#1A1A1A" fill-opacity="0.901961"/>
<path d="M159.282 68.994V68.654L159.69 68.518C160.528 68.2913 160.948 67.7473 160.948 66.886V48.39C160.948 47.8913 160.857 47.5173 160.676 47.268C160.517 47.0187 160.211 46.8487 159.758 46.758L159.282 46.656V46.316L165.062 44.344L165.402 44.684L165.708 45.738C166.456 45.2847 167.283 44.9333 168.19 44.684C169.119 44.4347 170.071 44.31 171.046 44.31C172.995 44.31 174.536 45.058 175.67 46.554C176.826 48.0273 177.404 50.1467 177.404 52.912C177.404 55.632 176.769 57.774 175.5 59.338C174.253 60.902 172.485 61.684 170.196 61.684C168.405 61.684 166.898 61.4233 165.674 60.902V66.784C165.674 67.6907 166.082 68.2573 166.898 68.484L167.544 68.654V68.994H159.282ZM168.564 60.698C169.697 60.698 170.592 60.1087 171.25 58.93C171.93 57.7513 172.27 55.7907 172.27 53.048C172.27 50.3053 171.952 48.39 171.318 47.302C170.683 46.1913 169.765 45.636 168.564 45.636C167.725 45.636 166.796 45.908 165.776 46.452V60.154C166.637 60.5167 167.566 60.698 168.564 60.698Z" fill="#1A1A1A" fill-opacity="0.901961"/>
<path d="M178.907 61.174V60.834L179.315 60.698C180.131 60.426 180.539 59.8593 180.539 58.998V40.842C180.539 40.366 180.46 40.0147 180.301 39.788C180.142 39.5613 179.836 39.3913 179.383 39.278L178.873 39.142V38.802L184.857 37.34L185.401 37.646L185.265 42.44V46.69C186.058 46.0327 186.908 45.4773 187.815 45.024C188.744 44.548 189.764 44.31 190.875 44.31C192.348 44.31 193.516 44.7293 194.377 45.568C195.261 46.4067 195.703 47.6987 195.703 49.444V59.032C195.703 59.4853 195.794 59.848 195.975 60.12C196.156 60.392 196.474 60.596 196.927 60.732L197.199 60.834V61.174H189.243V60.834L189.651 60.732C190.467 60.46 190.875 59.882 190.875 58.998V48.322C190.875 47.4153 190.716 46.792 190.399 46.452C190.104 46.112 189.572 45.942 188.801 45.942C188.302 45.942 187.758 46.044 187.169 46.248C186.58 46.4293 185.979 46.758 185.367 47.234V59.066C185.367 59.95 185.775 60.5167 186.591 60.766L186.863 60.834V61.174H178.907Z" fill="#1A1A1A" fill-opacity="0.901961"/>
<path d="M202.608 42.542C201.837 42.542 201.18 42.304 200.636 41.828C200.114 41.3293 199.854 40.706 199.854 39.958C199.854 39.1873 200.114 38.564 200.636 38.088C201.18 37.612 201.837 37.374 202.608 37.374C203.378 37.374 204.024 37.612 204.546 38.088C205.067 38.564 205.328 39.1873 205.328 39.958C205.328 40.706 205.067 41.3293 204.546 41.828C204.024 42.304 203.378 42.542 202.608 42.542ZM198.596 61.174V60.834L199.072 60.698C199.525 60.562 199.831 60.358 199.99 60.086C200.171 59.814 200.262 59.4513 200.262 58.998V48.356C200.262 47.88 200.171 47.5287 199.99 47.302C199.831 47.0527 199.525 46.8827 199.072 46.792L198.596 46.69V46.35L204.818 44.344L205.158 44.684L205.056 49.512V59.032C205.056 59.4853 205.135 59.848 205.294 60.12C205.475 60.392 205.781 60.596 206.212 60.732L206.552 60.834V61.174H198.596Z" fill="#1A1A1A" fill-opacity="0.901961"/>
<path d="M216.489 61.684C214.948 61.684 213.542 61.3553 212.273 60.698C211.026 60.018 210.029 59.0433 209.281 57.774C208.556 56.482 208.193 54.9067 208.193 53.048C208.193 51.212 208.59 49.648 209.383 48.356C210.199 47.0413 211.276 46.044 212.613 45.364C213.973 44.6613 215.458 44.31 217.067 44.31C218.382 44.31 219.492 44.5253 220.399 44.956C221.306 45.3867 221.997 45.9533 222.473 46.656C222.949 47.336 223.187 48.05 223.187 48.798C223.187 49.4327 222.994 49.9313 222.609 50.294C222.224 50.634 221.725 50.804 221.113 50.804C220.456 50.804 219.923 50.566 219.515 50.09C219.107 49.614 218.869 48.9907 218.801 48.22C218.778 47.7213 218.79 47.302 218.835 46.962C218.88 46.5993 218.88 46.2367 218.835 45.874C218.744 45.4887 218.597 45.2393 218.393 45.126C218.212 44.99 217.951 44.922 217.611 44.922C216.228 44.922 215.152 45.5227 214.381 46.724C213.633 47.9253 213.259 49.8407 213.259 52.47C213.259 54.7593 213.678 56.516 214.517 57.74C215.378 58.9413 216.693 59.542 218.461 59.542C219.526 59.542 220.388 59.3493 221.045 58.964C221.702 58.5787 222.337 58.0007 222.949 57.23L223.289 57.502C222.722 58.8393 221.85 59.8707 220.671 60.596C219.492 61.3213 218.098 61.684 216.489 61.684Z" fill="#1A1A1A" fill-opacity="0.901961"/>
<path d="M37.3666 98.786C36.1199 98.786 34.8506 98.6273 33.5586 98.31C32.2666 98.0153 31.1899 97.6187 30.3286 97.12L30.4986 92.496H30.8386L31.8926 94.706C32.2099 95.3407 32.5499 95.9073 32.9126 96.406C33.2753 96.882 33.7739 97.256 34.4086 97.528C34.8619 97.7547 35.2926 97.9133 35.7006 98.004C36.1313 98.072 36.6073 98.106 37.1286 98.106C38.5113 98.106 39.5993 97.732 40.3926 96.984C41.2086 96.236 41.6166 95.2727 41.6166 94.094C41.6166 92.9833 41.3446 92.122 40.8006 91.51C40.2566 90.8753 39.3839 90.2633 38.1826 89.674L36.7886 89.062C34.8393 88.2007 33.3093 87.2147 32.1986 86.104C31.1106 84.9707 30.5666 83.4747 30.5666 81.616C30.5666 80.2787 30.9066 79.1227 31.5866 78.148C32.2893 77.1733 33.2526 76.4253 34.4766 75.904C35.7233 75.3827 37.1739 75.122 38.8286 75.122C40.0299 75.122 41.1633 75.2807 42.2286 75.598C43.3166 75.9153 44.2573 76.346 45.0506 76.89L44.8466 80.97H44.5066L43.1126 78.42C42.7273 77.6267 42.3419 77.0713 41.9566 76.754C41.5713 76.414 41.1293 76.176 40.6306 76.04C40.3359 75.9493 40.0639 75.8927 39.8146 75.87C39.5653 75.8247 39.2479 75.802 38.8626 75.802C37.7066 75.802 36.7319 76.142 35.9386 76.822C35.1453 77.4793 34.7486 78.3747 34.7486 79.508C34.7486 80.664 35.0546 81.5933 35.6666 82.296C36.2786 82.976 37.1739 83.588 38.3526 84.132L39.9166 84.812C42.0926 85.764 43.6566 86.784 44.6086 87.872C45.5606 88.9373 46.0366 90.32 46.0366 92.02C46.0366 94.0147 45.2773 95.6467 43.7586 96.916C42.2626 98.1627 40.1319 98.786 37.3666 98.786Z" fill="#1A1A1A" fill-opacity="0.901961"/>
<path d="M53.847 98.684C52.3964 98.684 51.263 98.3213 50.447 97.596C49.6537 96.8707 49.257 95.7147 49.257 94.128V82.5H46.911V82.16L47.727 82.024C48.4297 81.8653 49.0304 81.6387 49.529 81.344C50.0504 81.0493 50.5604 80.6527 51.059 80.154L53.847 77.06H54.187L54.085 81.82H57.893V82.5H54.051V94.74C54.051 95.5333 54.221 96.134 54.561 96.542C54.9237 96.95 55.377 97.154 55.921 97.154C56.397 97.154 56.8164 97.0407 57.179 96.814C57.5417 96.5647 57.9044 96.236 58.267 95.828L58.607 96.168C58.1537 96.9387 57.5304 97.5507 56.737 98.004C55.9437 98.4573 54.9804 98.684 53.847 98.684Z" fill="#1A1A1A" fill-opacity="0.901961"/>
<path d="M65.627 98.684C64.743 98.684 63.927 98.514 63.179 98.174C62.4536 97.834 61.8756 97.29 61.445 96.542C61.037 95.7713 60.8443 94.7627 60.867 93.516L60.969 84.778C60.969 84.2567 60.8783 83.8827 60.697 83.656C60.5156 83.4293 60.2323 83.2707 59.847 83.18L59.439 83.044V82.704L65.525 81.514L65.865 81.854L65.695 86.682V94.876C65.695 95.6013 65.899 96.134 66.307 96.474C66.7376 96.814 67.2703 96.984 67.905 96.984C68.5396 96.984 69.1063 96.8933 69.605 96.712C70.1036 96.5307 70.6023 96.2587 71.101 95.896L71.237 84.812C71.237 84.2907 71.1576 83.928 70.999 83.724C70.8403 83.4973 70.5456 83.3387 70.115 83.248L69.775 83.146V82.806L75.725 81.514L76.065 81.854L75.963 86.682V95.896C75.963 96.3947 76.031 96.78 76.167 97.052C76.303 97.324 76.5976 97.5507 77.051 97.732L77.391 97.834V98.174L71.441 98.514L71.135 96.508C70.387 97.12 69.571 97.6413 68.687 98.072C67.8256 98.48 66.8056 98.684 65.627 98.684Z" fill="#1A1A1A" fill-opacity="0.901961"/>
<path d="M85.8392 98.684C84.5018 98.684 83.3005 98.3893 82.2352 97.8C81.1698 97.188 80.3198 96.2587 79.6852 95.012C79.0732 93.7427 78.7672 92.122 78.7672 90.15C78.7672 88.1553 79.1185 86.512 79.8212 85.22C80.5238 83.9053 81.4532 82.9307 82.6092 82.296C83.7652 81.6387 85.0232 81.31 86.3832 81.31C87.1765 81.31 87.9358 81.3893 88.6612 81.548C89.3865 81.7067 90.0325 81.9447 90.5992 82.262V77.842C90.5992 77.366 90.5198 77.0147 90.3612 76.788C90.2252 76.5613 89.9192 76.4027 89.4432 76.312L88.7972 76.176V75.836L94.9852 74.34L95.3592 74.646L95.2232 79.406V96.032C95.2232 96.4853 95.3025 96.8593 95.4612 97.154C95.6198 97.426 95.9145 97.6187 96.3452 97.732L96.6512 97.834V98.174L90.8372 98.548L90.5312 97.324C89.9192 97.732 89.2165 98.0607 88.4232 98.31C87.6525 98.5593 86.7912 98.684 85.8392 98.684ZM87.8112 97.426C88.7632 97.426 89.6358 97.1427 90.4292 96.576V83.078C89.5905 82.534 88.7292 82.262 87.8452 82.262C86.7572 82.262 85.8278 82.8967 85.0572 84.166C84.2865 85.4127 83.9012 87.3847 83.9012 90.082C83.9012 92.7793 84.2638 94.6833 84.9892 95.794C85.7145 96.882 86.6552 97.426 87.8112 97.426Z" fill="#1A1A1A" fill-opacity="0.901961"/>
<path d="M102.235 79.542C101.464 79.542 100.807 79.304 100.263 78.828C99.7413 78.3293 99.4806 77.706 99.4806 76.958C99.4806 76.1873 99.7413 75.564 100.263 75.088C100.807 74.612 101.464 74.374 102.235 74.374C103.005 74.374 103.651 74.612 104.173 75.088C104.694 75.564 104.955 76.1873 104.955 76.958C104.955 77.706 104.694 78.3293 104.173 78.828C103.651 79.304 103.005 79.542 102.235 79.542ZM98.2226 98.174V97.834L98.6986 97.698C99.1519 97.562 99.4579 97.358 99.6166 97.086C99.7979 96.814 99.8886 96.4513 99.8886 95.998V85.356C99.8886 84.88 99.7979 84.5287 99.6166 84.302C99.4579 84.0527 99.1519 83.8827 98.6986 83.792L98.2226 83.69V83.35L104.445 81.344L104.785 81.684L104.683 86.512V96.032C104.683 96.4853 104.762 96.848 104.921 97.12C105.102 97.392 105.408 97.596 105.839 97.732L106.179 97.834V98.174H98.2226Z" fill="#1A1A1A" fill-opacity="0.901961"/>
<path d="M116.218 81.31C117.691 81.31 118.949 81.616 119.992 82.228C121.035 82.8173 121.828 83.6333 122.372 84.676C122.939 85.696 123.222 86.8633 123.222 88.178C123.222 88.4273 123.211 88.688 123.188 88.96C123.165 89.2093 123.12 89.436 123.052 89.64H112.92C112.943 92.088 113.373 93.856 114.212 94.944C115.073 96.0093 116.343 96.542 118.02 96.542C119.153 96.542 120.071 96.3607 120.774 95.998C121.477 95.6353 122.134 95.1027 122.746 94.4L123.086 94.706C122.383 95.9527 121.443 96.9273 120.264 97.63C119.108 98.3327 117.714 98.684 116.082 98.684C114.473 98.684 113.045 98.344 111.798 97.664C110.551 96.9613 109.577 95.964 108.874 94.672C108.171 93.38 107.82 91.8387 107.82 90.048C107.82 88.1893 108.228 86.614 109.044 85.322C109.86 84.0073 110.903 83.01 112.172 82.33C113.464 81.65 114.813 81.31 116.218 81.31ZM116.116 81.99C115.459 81.99 114.892 82.194 114.416 82.602C113.963 82.9873 113.6 83.69 113.328 84.71C113.079 85.7073 112.943 87.124 112.92 88.96H118.734C118.961 86.4893 118.87 84.71 118.462 83.622C118.054 82.534 117.272 81.99 116.116 81.99Z" fill="#1A1A1A" fill-opacity="0.901961"/>
<path d="M130.798 98.684C129.688 98.684 128.69 98.548 127.806 98.276C126.922 98.0267 126.106 97.7093 125.358 97.324L125.392 93.278H125.732L126.888 95.318C127.387 96.2247 127.931 96.9047 128.52 97.358C129.132 97.7887 129.903 98.004 130.832 98.004C131.92 98.004 132.793 97.766 133.45 97.29C134.13 96.7913 134.47 96.134 134.47 95.318C134.47 94.57 134.232 93.958 133.756 93.482C133.28 93.006 132.396 92.5753 131.104 92.19L129.676 91.748C128.294 91.34 127.206 90.7053 126.412 89.844C125.619 88.9827 125.222 87.9287 125.222 86.682C125.222 85.186 125.812 83.9167 126.99 82.874C128.169 81.8313 129.858 81.31 132.056 81.31C132.94 81.31 133.768 81.412 134.538 81.616C135.332 81.7973 136.091 82.0807 136.816 82.466L136.612 86.138H136.272L135.082 84.03C134.652 83.282 134.221 82.7607 133.79 82.466C133.382 82.1487 132.759 81.99 131.92 81.99C131.15 81.99 130.424 82.2053 129.744 82.636C129.064 83.0667 128.724 83.6787 128.724 84.472C128.724 85.2427 129.008 85.8547 129.574 86.308C130.164 86.7613 131.025 87.1807 132.158 87.566L133.688 88.008C135.32 88.5067 136.488 89.198 137.19 90.082C137.893 90.9433 138.244 91.986 138.244 93.21C138.244 94.8647 137.587 96.1907 136.272 97.188C134.98 98.1853 133.156 98.684 130.798 98.684Z" fill="#1A1A1A" fill-opacity="0.901961"/>
<path d="M0 1.174L21.5 99.174H0V1.174Z" fill="#C35422"/>
</svg>
